STARTFONT 2.1
FONT -DEC-Terminal-Bold-R-Wide--14-100-100-100-C-120-ISO8859-1
SIZE 10 100 100
FONTBOUNDINGBOX 12 14 0 -3

STARTPROPERTIES 25
CHARSET_REGISTRY "ISO8859"
CHARSET_ENCODING "1"
CAP_HEIGHT 9
X_HEIGHT 7
AVERAGE_WIDTH 120
FONTNAME_REGISTRY ""
FAMILY_NAME "Terminal"
FOUNDRY "DEC"
WEIGHT_NAME "Bold"
SETWIDTH_NAME "Wide"
SLANT "R"
ADD_STYLE_NAME ""
PIXEL_SIZE 14
POINT_SIZE 100
RESOLUTION_X 100
RESOLUTION_Y 100
SPACING "C"
CHARSET_COLLECTIONS "ASCII ISO8859-1"
FULL_NAME "Terminal Bold Wide"
COPYRIGHT "Copyright (c) 1990 Digital Equipment Corp. All rights reserved."
WEIGHT 10
QUAD_WIDTH 12
DEFAULT_CHAR 159
FONT_DESCENT 2
FONT_ASCENT 11
ENDPROPERTIES

CHARS 194

STARTCHAR space
ENCODING 32
SWIDTH 860 0
DWIDTH 12 0
BBX 1 1 0 0
BITMAP
00
ENDCHAR

STARTCHAR exclam
ENCODING 33
SWIDTH 860 0
DWIDTH 12 0
BBX 4 9 4 0
BITMAP
F0
F0
F0
F0
F0
F0
00
F0
F0
ENDCHAR

STARTCHAR quotedbl
ENCODING 34
SWIDTH 860 0
DWIDTH 12 0
BBX 10 3 1 7
BITMAP
F3C0
F3C0
F3C0
ENDCHAR

STARTCHAR numbersign
ENCODING 35
SWIDTH 860 0
DWIDTH 12 0
BBX 10 8 1 1
BITMAP
3300
FFC0
FFC0
3300
3300
FFC0
FFC0
3300
ENDCHAR

STARTCHAR dollar
ENCODING 36
SWIDTH 860 0
DWIDTH 12 0
BBX 10 11 1 -1
BITMAP
0C00
0C00
7F80
F3C0
F000
7F80
03C0
F3C0
7F80
0C00
0C00
ENDCHAR

STARTCHAR percent
ENCODING 37
SWIDTH 860 0
DWIDTH 12 0
BBX 11 9 1 0
BITMAP
78E0
DDC0
7B80
0700
0E00
1C00
3BC0
76E0
E3C0
ENDCHAR

STARTCHAR ampersand
ENCODING 38
SWIDTH 860 0
DWIDTH 12 0
BBX 10 9 1 0
BITMAP
3E00
7700
7700
3E00
7EC0
EF80
E700
FF80
7DC0
ENDCHAR

STARTCHAR quoteright
ENCODING 39
SWIDTH 860 0
DWIDTH 12 0
BBX 5 4 4 6
BITMAP
78
78
38
F0
ENDCHAR

STARTCHAR parenleft
ENCODING 40
SWIDTH 860 0
DWIDTH 12 0
BBX 8 11 1 -1
BITMAP
1F
3C
78
F0
F0
F0
F0
F0
78
3C
1F
ENDCHAR

STARTCHAR parenright
ENCODING 41
SWIDTH 860 0
DWIDTH 12 0
BBX 8 11 3 -1
BITMAP
F8
3C
1E
0F
0F
0F
0F
0F
1E
3C
F8
ENDCHAR

STARTCHAR asterisk
ENCODING 42
SWIDTH 860 0
DWIDTH 12 0
BBX 10 7 1 2
BITMAP
0C00
CCC0
3F00
3F00
3F00
CCC0
0C00
ENDCHAR

STARTCHAR plus
ENCODING 43
SWIDTH 860 0
DWIDTH 12 0
BBX 10 6 1 1
BITMAP
1E00
1E00
FFC0
FFC0
1E00
1E00
ENDCHAR

STARTCHAR comma
ENCODING 44
SWIDTH 860 0
DWIDTH 12 0
BBX 4 4 4 -2
BITMAP
F0
F0
70
E0
ENDCHAR

STARTCHAR minus
ENCODING 45
SWIDTH 860 0
DWIDTH 12 0
BBX 10 2 1 3
BITMAP
FFC0
FFC0
ENDCHAR

STARTCHAR period
ENCODING 46
SWIDTH 860 0
DWIDTH 12 0
BBX 4 2 4 0
BITMAP
F0
F0
ENDCHAR

STARTCHAR slash
ENCODING 47
SWIDTH 860 0
DWIDTH 12 0
BBX 10 11 1 -1
BITMAP
03C0
03C0
07C0
0780
0F00
1E00
3C00
7800
7800
F000
F000
ENDCHAR

STARTCHAR zero
ENCODING 48
SWIDTH 860 0
DWIDTH 12 0
BBX 10 9 1 0
BITMAP
1E00
7F80
F3C0
F3C0
F3C0
F3C0
F3C0
7F80
1E00
ENDCHAR

STARTCHAR one
ENCODING 49
SWIDTH 860 0
DWIDTH 12 0
BBX 10 9 1 0
BITMAP
0E00
1E00
7E00
1E00
1E00
1E00
1E00
1E00
FFC0
ENDCHAR

STARTCHAR two
ENCODING 50
SWIDTH 860 0
DWIDTH 12 0
BBX 10 9 1 0
BITMAP
7F80
F3C0
F3C0
03C0
0FC0
3F80
FE00
F800
FFC0
ENDCHAR

STARTCHAR three
ENCODING 51
SWIDTH 860 0
DWIDTH 12 0
BBX 10 9 1 0
BITMAP
7F80
F3C0
F3C0
03C0
0F80
03C0
F3C0
F3C0
7F80
ENDCHAR

STARTCHAR four
ENCODING 52
SWIDTH 860 0
DWIDTH 12 0
BBX 10 9 1 0
BITMAP
0700
0F00
1F00
3F00
7F00
EF00
CF00
FFC0
0F00
ENDCHAR

STARTCHAR five
ENCODING 53
SWIDTH 860 0
DWIDTH 12 0
BBX 10 9 1 0
BITMAP
FFC0
F000
F000
FF80
F3C0
03C0
F3C0
F3C0
7F80
ENDCHAR

STARTCHAR six
ENCODING 54
SWIDTH 860 0
DWIDTH 12 0
BBX 10 9 1 0
BITMAP
7F80
F3C0
F000
FF80
F3C0
F3C0
F3C0
F3C0
7F80
ENDCHAR

STARTCHAR seven
ENCODING 55
SWIDTH 860 0
DWIDTH 12 0
BBX 10 9 1 0
BITMAP
FFC0
03C0
03C0
0780
0F00
1E00
3C00
3C00
3C00
ENDCHAR

STARTCHAR eight
ENCODING 56
SWIDTH 860 0
DWIDTH 12 0
BBX 10 9 1 0
BITMAP
7F80
F3C0
F3C0
F3C0
7F80
F3C0
F3C0
F3C0
7F80
ENDCHAR

STARTCHAR nine
ENCODING 57
SWIDTH 860 0
DWIDTH 12 0
BBX 10 9 1 0
BITMAP
7F80
F3C0
F3C0
F3C0
F3C0
7FC0
03C0
F3C0
7F80
ENDCHAR

STARTCHAR colon
ENCODING 58
SWIDTH 860 0
DWIDTH 12 0
BBX 4 7 4 0
BITMAP
F0
F0
00
00
00
F0
F0
ENDCHAR

STARTCHAR semicolon
ENCODING 59
SWIDTH 860 0
DWIDTH 12 0
BBX 6 8 2 -1
BITMAP
3C
3C
00
00
00
3C
3C
F8
ENDCHAR

STARTCHAR less
ENCODING 60
SWIDTH 860 0
DWIDTH 12 0
BBX 8 9 2 0
BITMAP
0F
1E
3C
78
F0
78
3C
1E
0F
ENDCHAR

STARTCHAR equal
ENCODING 61
SWIDTH 860 0
DWIDTH 12 0
BBX 8 5 2 2
BITMAP
FF
FF
00
FF
FF
ENDCHAR

STARTCHAR greater
ENCODING 62
SWIDTH 860 0
DWIDTH 12 0
BBX 8 9 2 0
BITMAP
F0
78
3C
1E
0F
1E
3C
78
F0
ENDCHAR

STARTCHAR question
ENCODING 63
SWIDTH 860 0
DWIDTH 12 0
BBX 10 9 1 0
BITMAP
7F80
F3C0
F3C0
0780
1F00
3C00
0000
3C00
3C00
ENDCHAR

STARTCHAR at
ENCODING 64
SWIDTH 860 0
DWIDTH 12 0
BBX 10 9 1 0
BITMAP
7F80
F0C0
F0C0
F3C0
F6C0
F7C0
F380
F000
7FC0
ENDCHAR

STARTCHAR A
ENCODING 65
SWIDTH 860 0
DWIDTH 12 0
BBX 10 9 1 0
BITMAP
1E00
7F80
F3C0
F3C0
F3C0
FFC0
F3C0
F3C0
F3C0
ENDCHAR

STARTCHAR B
ENCODING 66
SWIDTH 860 0
DWIDTH 12 0
BBX 10 9 1 0
BITMAP
FF80
F3C0
F3C0
F3C0
FF80
F3C0
F3C0
F3C0
FF80
ENDCHAR

STARTCHAR C
ENCODING 67
SWIDTH 860 0
DWIDTH 12 0
BBX 10 9 1 0
BITMAP
7F80
F3C0
F3C0
F000
F000
F000
F3C0
F3C0
7F80
ENDCHAR

STARTCHAR D
ENCODING 68
SWIDTH 860 0
DWIDTH 12 0
BBX 10 9 1 0
BITMAP
FF80
F3C0
F3C0
F3C0
F3C0
F3C0
F3C0
F3C0
FF80
ENDCHAR

STARTCHAR E
ENCODING 69
SWIDTH 860 0
DWIDTH 12 0
BBX 9 9 2 0
BITMAP
FF80
F000
F000
F000
FF00
F000
F000
F000
FF80
ENDCHAR

STARTCHAR F
ENCODING 70
SWIDTH 860 0
DWIDTH 12 0
BBX 9 9 2 0
BITMAP
FF80
F000
F000
F000
FF00
F000
F000
F000
F000
ENDCHAR

STARTCHAR G
ENCODING 71
SWIDTH 860 0
DWIDTH 12 0
BBX 10 9 1 0
BITMAP
7F80
F3C0
F3C0
F000
F7C0
F3C0
F3C0
F3C0
7FC0
ENDCHAR

STARTCHAR H
ENCODING 72
SWIDTH 860 0
DWIDTH 12 0
BBX 10 9 1 0
BITMAP
F3C0
F3C0
F3C0
F3C0
FFC0
F3C0
F3C0
F3C0
F3C0
ENDCHAR

STARTCHAR I
ENCODING 73
SWIDTH 860 0
DWIDTH 12 0
BBX 10 9 1 0
BITMAP
FFC0
1E00
1E00
1E00
1E00
1E00
1E00
1E00
FFC0
ENDCHAR

STARTCHAR J
ENCODING 74
SWIDTH 860 0
DWIDTH 12 0
BBX 10 9 1 0
BITMAP
0FC0
03C0
03C0
03C0
03C0
03C0
F3C0
F3C0
7F80
ENDCHAR

STARTCHAR K
ENCODING 75
SWIDTH 860 0
DWIDTH 12 0
BBX 10 9 1 0
BITMAP
F1C0
F3C0
F780
FF00
FE00
FF00
F780
F3C0
F3C0
ENDCHAR

STARTCHAR L
ENCODING 76
SWIDTH 860 0
DWIDTH 12 0
BBX 9 9 2 0
BITMAP
F000
F000
F000
F000
F000
F000
F000
F000
FF80
ENDCHAR

STARTCHAR M
ENCODING 77
SWIDTH 860 0
DWIDTH 12 0
BBX 10 9 1 0
BITMAP
E1C0
F3C0
FFC0
FFC0
FFC0
EDC0
EDC0
E1C0
E1C0
ENDCHAR

STARTCHAR N
ENCODING 78
SWIDTH 860 0
DWIDTH 12 0
BBX 10 9 1 0
BITMAP
C3C0
E3C0
F3C0
FFC0
FFC0
FFC0
F3C0
F1C0
F0C0
ENDCHAR

STARTCHAR O
ENCODING 79
SWIDTH 860 0
DWIDTH 12 0
BBX 10 9 1 0
BITMAP
7F80
F3C0
F3C0
F3C0
F3C0
F3C0
F3C0
F3C0
7F80
ENDCHAR

STARTCHAR P
ENCODING 80
SWIDTH 860 0
DWIDTH 12 0
BBX 10 9 1 0
BITMAP
FF80
F3C0
F3C0
F3C0
F3C0
F3C0
FF80
F000
F000
ENDCHAR

STARTCHAR Q
ENCODING 81
SWIDTH 860 0
DWIDTH 12 0
BBX 10 10 1 -1
BITMAP
7F80
F3C0
F3C0
F3C0
F3C0
F3C0
F3C0
F3C0
7F80
03C0
ENDCHAR

STARTCHAR R
ENCODING 82
SWIDTH 860 0
DWIDTH 12 0
BBX 10 9 1 0
BITMAP
FF80
F3C0
F3C0
F3C0
F3C0
FF80
F3C0
F3C0
F3C0
ENDCHAR

STARTCHAR S
ENCODING 83
SWIDTH 860 0
DWIDTH 12 0
BBX 10 9 1 0
BITMAP
7F80
F3C0
F000
FF80
7FC0
03C0
F3C0
F3C0
7F80
ENDCHAR

STARTCHAR T
ENCODING 84
SWIDTH 860 0
DWIDTH 12 0
BBX 10 9 1 0
BITMAP
FFC0
1E00
1E00
1E00
1E00
1E00
1E00
1E00
1E00
ENDCHAR

STARTCHAR U
ENCODING 85
SWIDTH 860 0
DWIDTH 12 0
BBX 10 9 1 0
BITMAP
F3C0
F3C0
F3C0
F3C0
F3C0
F3C0
F3C0
F3C0
7F80
ENDCHAR

STARTCHAR V
ENCODING 86
SWIDTH 860 0
DWIDTH 12 0
BBX 10 9 1 0
BITMAP
F3C0
F3C0
F3C0
F3C0
F3C0
7380
3F00
1E00
0C00
ENDCHAR

STARTCHAR W
ENCODING 87
SWIDTH 860 0
DWIDTH 12 0
BBX 10 9 1 0
BITMAP
E1C0
E1C0
E1C0
EDC0
EDC0
FFC0
FFC0
F3C0
6180
ENDCHAR

STARTCHAR X
ENCODING 88
SWIDTH 860 0
DWIDTH 12 0
BBX 10 9 1 0
BITMAP
F3C0
F3C0
7380
3F00
1E00
3F00
7380
F3C0
F3C0
ENDCHAR

STARTCHAR Y
ENCODING 89
SWIDTH 860 0
DWIDTH 12 0
BBX 10 9 1 0
BITMAP
F3C0
F3C0
F3C0
7380
3F00
1E00
1E00
1E00
1E00
ENDCHAR

STARTCHAR Z
ENCODING 90
SWIDTH 860 0
DWIDTH 12 0
BBX 10 9 1 0
BITMAP
FFC0
03C0
0780
0F00
1E00
3C00
7800
F000
FFC0
ENDCHAR

STARTCHAR bracketleft
ENCODING 91
SWIDTH 860 0
DWIDTH 12 0
BBX 8 11 2 -1
BITMAP
FF
F0
F0
F0
F0
F0
F0
F0
F0
F0
FF
ENDCHAR

STARTCHAR backslash
ENCODING 92
SWIDTH 860 0
DWIDTH 12 0
BBX 10 11 1 -1
BITMAP
F000
F000
7800
7800
3C00
1E00
0F00
0780
0780
03C0
03C0
ENDCHAR

STARTCHAR bracketright
ENCODING 93
SWIDTH 860 0
DWIDTH 12 0
BBX 8 11 1 -1
BITMAP
FF
0F
0F
0F
0F
0F
0F
0F
0F
0F
FF
ENDCHAR

STARTCHAR asciicircum
ENCODING 94
SWIDTH 860 0
DWIDTH 12 0
BBX 9 3 1 4
BITMAP
3E00
7700
E380
ENDCHAR

STARTCHAR underscore
ENCODING 95
SWIDTH 860 0
DWIDTH 12 0
BBX 10 2 1 0
BITMAP
FFC0
FFC0
ENDCHAR

STARTCHAR quoteleft
ENCODING 96
SWIDTH 860 0
DWIDTH 12 0
BBX 5 4 3 6
BITMAP
F0
F0
E0
78
ENDCHAR

STARTCHAR a
ENCODING 97
SWIDTH 860 0
DWIDTH 12 0
BBX 11 7 1 0
BITMAP
7F80
03C0
7FC0
F3C0
F3C0
F3C0
7DE0
ENDCHAR

STARTCHAR b
ENCODING 98
SWIDTH 860 0
DWIDTH 12 0
BBX 10 9 1 0
BITMAP
F000
F000
F780
FBC0
F3C0
F3C0
F3C0
F3C0
FF80
ENDCHAR

STARTCHAR c
ENCODING 99
SWIDTH 860 0
DWIDTH 12 0
BBX 10 7 1 0
BITMAP
7F80
F3C0
F3C0
F000
F3C0
F3C0
7F80
ENDCHAR

STARTCHAR d
ENCODING 100
SWIDTH 860 0
DWIDTH 12 0
BBX 10 9 1 0
BITMAP
03C0
03C0
7BC0
F7C0
F3C0
F3C0
F3C0
F3C0
7FC0
ENDCHAR

STARTCHAR e
ENCODING 101
SWIDTH 860 0
DWIDTH 12 0
BBX 10 7 1 0
BITMAP
7F80
F3C0
F3C0
FFC0
F000
F3C0
7F80
ENDCHAR

STARTCHAR f
ENCODING 102
SWIDTH 860 0
DWIDTH 12 0
BBX 10 9 1 0
BITMAP
1FC0
3C00
3C00
FF80
3C00
3C00
3C00
3C00
3C00
ENDCHAR

STARTCHAR g
ENCODING 103
SWIDTH 860 0
DWIDTH 12 0
BBX 10 9 1 -2
BITMAP
7FC0
F3C0
F3C0
F3C0
F3C0
7FC0
03C0
0380
7F00
ENDCHAR

STARTCHAR h
ENCODING 104
SWIDTH 860 0
DWIDTH 12 0
BBX 10 9 1 0
BITMAP
F000
F000
FF80
F3C0
F3C0
F3C0
F3C0
F3C0
F3C0
ENDCHAR

STARTCHAR i
ENCODING 105
SWIDTH 860 0
DWIDTH 12 0
BBX 10 9 1 0
BITMAP
1E00
1E00
0000
7E00
1E00
1E00
1E00
1E00
FFC0
ENDCHAR

STARTCHAR j
ENCODING 106
SWIDTH 860 0
DWIDTH 12 0
BBX 8 11 1 -2
BITMAP
0F
0F
00
7F
0F
0F
0F
0F
0F
0F
FE
ENDCHAR

STARTCHAR k
ENCODING 107
SWIDTH 860 0
DWIDTH 12 0
BBX 10 9 1 0
BITMAP
F000
F000
F000
F380
F700
FE00
FF00
F780
F3C0
ENDCHAR

STARTCHAR l
ENCODING 108
SWIDTH 860 0
DWIDTH 12 0
BBX 10 9 1 0
BITMAP
7E00
1E00
1E00
1E00
1E00
1E00
1E00
1E00
FFC0
ENDCHAR

STARTCHAR m
ENCODING 109
SWIDTH 860 0
DWIDTH 12 0
BBX 10 7 1 0
BITMAP
E1C0
F3C0
FFC0
FFC0
EDC0
EDC0
E1C0
ENDCHAR

STARTCHAR n
ENCODING 110
SWIDTH 860 0
DWIDTH 12 0
BBX 10 7 1 0
BITMAP
F780
FFC0
FBC0
F3C0
F3C0
F3C0
F3C0
ENDCHAR

STARTCHAR o
ENCODING 111
SWIDTH 860 0
DWIDTH 12 0
BBX 10 7 1 0
BITMAP
7F80
F3C0
F3C0
F3C0
F3C0
F3C0
7F80
ENDCHAR

STARTCHAR p
ENCODING 112
SWIDTH 860 0
DWIDTH 12 0
BBX 10 8 1 -1
BITMAP
FF80
F3C0
F3C0
F3C0
FBC0
F780
F000
F000
ENDCHAR

STARTCHAR q
ENCODING 113
SWIDTH 860 0
DWIDTH 12 0
BBX 10 8 1 -1
BITMAP
7FC0
F3C0
F3C0
F3C0
F7C0
7BC0
03C0
03C0
ENDCHAR

STARTCHAR r
ENCODING 114
SWIDTH 860 0
DWIDTH 12 0
BBX 10 7 1 0
BITMAP
F780
FFC0
F3C0
F000
F000
F000
F000
ENDCHAR

STARTCHAR s
ENCODING 115
SWIDTH 860 0
DWIDTH 12 0
BBX 10 7 1 0
BITMAP
7F80
F3C0
F000
7F80
03C0
F3C0
7F80
ENDCHAR

STARTCHAR t
ENCODING 116
SWIDTH 860 0
DWIDTH 12 0
BBX 10 9 1 0
BITMAP
3C00
3C00
FF80
3C00
3C00
3C00
3C00
3C00
1FC0
ENDCHAR

STARTCHAR u
ENCODING 117
SWIDTH 860 0
DWIDTH 12 0
BBX 10 7 1 0
BITMAP
F3C0
F3C0
F3C0
F3C0
F3C0
F3C0
7F80
ENDCHAR

STARTCHAR v
ENCODING 118
SWIDTH 860 0
DWIDTH 12 0
BBX 10 7 1 0
BITMAP
F3C0
F3C0
F3C0
7380
3F00
1E00
0C00
ENDCHAR

STARTCHAR w
ENCODING 119
SWIDTH 860 0
DWIDTH 12 0
BBX 10 7 1 0
BITMAP
E1C0
EDC0
EDC0
FFC0
FFC0
7380
2100
ENDCHAR

STARTCHAR x
ENCODING 120
SWIDTH 860 0
DWIDTH 12 0
BBX 10 7 1 0
BITMAP
F3C0
7380
3F00
3F00
7F80
F3C0
F3C0
ENDCHAR

STARTCHAR y
ENCODING 121
SWIDTH 860 0
DWIDTH 12 0
BBX 10 9 1 -2
BITMAP
F3C0
F3C0
F3C0
F3C0
F3C0
7FC0
03C0
03C0
7F80
ENDCHAR

STARTCHAR z
ENCODING 122
SWIDTH 860 0
DWIDTH 12 0
BBX 10 7 1 0
BITMAP
FFC0
0780
0F00
1E00
3C00
7800
FFC0
ENDCHAR

STARTCHAR braceleft
ENCODING 123
SWIDTH 860 0
DWIDTH 12 0
BBX 8 11 1 -1
BITMAP
1F
3C
3C
3C
1E
FC
1E
3C
3C
3C
1F
ENDCHAR

STARTCHAR bar
ENCODING 124
SWIDTH 860 0
DWIDTH 12 0
BBX 4 11 3 -1
BITMAP
F0
F0
F0
F0
F0
F0
F0
F0
F0
F0
F0
ENDCHAR

STARTCHAR braceright
ENCODING 125
SWIDTH 860 0
DWIDTH 12 0
BBX 8 11 2 -1
BITMAP
F8
3C
3C
3C
78
3F
78
3C
3C
3C
F8
ENDCHAR

STARTCHAR asciitilde
ENCODING 126
SWIDTH 860 0
DWIDTH 12 0
BBX 10 3 1 4
BITMAP
78C0
FFC0
C780
ENDCHAR

STARTCHAR OE
ENCODING 128
SWIDTH 860 0
DWIDTH 12 0
BBX 12 9 0 0
BITMAP
7FF0
E780
E780
E780
E7E0
E780
E780
E780
7FF0
ENDCHAR

STARTCHAR oe
ENCODING 129
SWIDTH 860 0
DWIDTH 12 0
BBX 12 7 0 0
BITMAP
7FE0
E730
E730
E7F0
E700
E730
7FE0
ENDCHAR

STARTCHAR Ydieresis
ENCODING 130
SWIDTH 860 0
DWIDTH 12 0
BBX 10 11 1 0
BITMAP
F3C0
F3C0
0000
F3C0
F3C0
F3C0
7380
3F00
1E00
1E00
1E00
ENDCHAR

STARTCHAR Error
ENCODING 159
SWIDTH 860 0
DWIDTH 12 0
BBX 12 14 0 -3
BITMAP
1FC0
7FF0
FFF0
F0F0
F000
FC00
7F00
3F80
0F80
0F80
0000
0F80
0F80
0F80
ENDCHAR

STARTCHAR exclamdown
ENCODING 161
SWIDTH 860 0
DWIDTH 12 0
BBX 4 10 3 -1
BITMAP
F0
F0
00
F0
F0
F0
F0
F0
F0
F0
ENDCHAR

STARTCHAR cent
ENCODING 162
SWIDTH 860 0
DWIDTH 12 0
BBX 11 9 1 0
BITMAP
0F00
0F00
7FC0
F0E0
F000
F0E0
7FC0
0F00
0F00
ENDCHAR

STARTCHAR sterling
ENCODING 163
SWIDTH 860 0
DWIDTH 12 0
BBX 10 9 1 0
BITMAP
1F80
3CC0
3CC0
3C00
FF00
3C00
3C00
7CC0
EF80
ENDCHAR

STARTCHAR currency
ENCODING 164
SWIDTH 860 0
DWIDTH 12 0
BBX 10 8 1 0
BITMAP
C0C0
7F80
3F00
3300
3300
3F00
7F80
C0C0
ENDCHAR

STARTCHAR yen
ENCODING 165
SWIDTH 860 0
DWIDTH 12 0
BBX 10 9 1 0
BITMAP
F3C0
F3C0
F3C0
7F80
FFC0
1E00
FFC0
1E00
1E00
ENDCHAR

STARTCHAR brokenbar
ENCODING 166
SWIDTH 860 0
DWIDTH 12 0
BBX 4 11 3 -1
BITMAP
F0
F0
F0
F0
00
00
00
F0
F0
F0
F0
ENDCHAR

STARTCHAR section
ENCODING 167
SWIDTH 860 0
DWIDTH 12 0
BBX 10 11 1 -1
BITMAP
7F80
F3C0
F3C0
F800
7F00
6180
3F80
07C0
F3C0
F3C0
7F80
ENDCHAR

STARTCHAR dieresis
ENCODING 168
SWIDTH 860 0
DWIDTH 12 0
BBX 10 2 1 8
BITMAP
F3C0
F3C0
ENDCHAR

STARTCHAR copyright
ENCODING 169
SWIDTH 860 0
DWIDTH 12 0
BBX 11 11 1 -1
BITMAP
1F00
60C0
4E40
9F20
9B20
9820
9B20
9F20
4E40
60C0
1F00
ENDCHAR

STARTCHAR ordfeminine
ENCODING 170
SWIDTH 860 0
DWIDTH 12 0
BBX 10 8 1 2
BITMAP
7F80
03C0
7FC0
F3C0
F3C0
7FC0
0000
FFC0
ENDCHAR

STARTCHAR guillemotleft
ENCODING 171
SWIDTH 860 0
DWIDTH 12 0
BBX 10 5 1 1
BITMAP
39C0
7380
E700
7380
39C0
ENDCHAR

STARTCHAR logicalnot
ENCODING 172
SWIDTH 860 0
DWIDTH 12 0
BBX 10 3 1 2
BITMAP
FFC0
FFC0
03C0
ENDCHAR

STARTCHAR hyphen
ENCODING 173
SWIDTH 860 0
DWIDTH 12 0
BBX 6 2 3 3
BITMAP
FC
FC
ENDCHAR

STARTCHAR registered
ENCODING 174
SWIDTH 860 0
DWIDTH 12 0
BBX 11 10 1 -1
BITMAP
1F00
60C0
5F40
99A0
99A0
9F20
9B20
59C0
60C0
3F00
ENDCHAR

STARTCHAR macron
ENCODING 175
SWIDTH 860 0
DWIDTH 12 0
BBX 10 2 1 8
BITMAP
FFC0
FFC0
ENDCHAR

STARTCHAR degree
ENCODING 176
SWIDTH 860 0
DWIDTH 12 0
BBX 8 4 2 5
BITMAP
7E
E7
E7
7E
ENDCHAR

STARTCHAR plusminus
ENCODING 177
SWIDTH 860 0
DWIDTH 12 0
BBX 10 9 1 0
BITMAP
1E00
1E00
FFC0
FFC0
1E00
1E00
0000
FFC0
FFC0
ENDCHAR

STARTCHAR twosuperior
ENCODING 178
SWIDTH 860 0
DWIDTH 12 0
BBX 8 6 2 4
BITMAP
7E
CF
1F
7E
F8
FF
ENDCHAR

STARTCHAR threesuperior
ENCODING 179
SWIDTH 860 0
DWIDTH 12 0
BBX 8 6 2 4
BITMAP
FE
0F
3E
0F
CF
7E
ENDCHAR

STARTCHAR acute
ENCODING 180
SWIDTH 860 0
DWIDTH 12 0
BBX 5 2 3 8
BITMAP
78
F0
ENDCHAR

STARTCHAR mu
ENCODING 181
SWIDTH 860 0
DWIDTH 12 0
BBX 11 8 1 -1
BITMAP
F3C0
F3C0
F3C0
F3C0
F3C0
73C0
7FE0
C000
ENDCHAR

STARTCHAR paragraph
ENCODING 182
SWIDTH 860 0
DWIDTH 12 0
BBX 10 11 1 -1
BITMAP
1FC0
7CC0
FCC0
FCC0
FCC0
FCC0
7CC0
1CC0
1CC0
1CC0
1CC0
ENDCHAR

STARTCHAR periodcentered
ENCODING 183
SWIDTH 860 0
DWIDTH 12 0
BBX 4 2 4 4
BITMAP
F0
F0
ENDCHAR

STARTCHAR cedilla
ENCODING 184
SWIDTH 860 0
DWIDTH 12 0
BBX 6 3 1 -1
BITMAP
3C
3C
FC
ENDCHAR

STARTCHAR onesuperior
ENCODING 185
SWIDTH 860 0
DWIDTH 12 0
BBX 8 6 2 4
BITMAP
3C
FC
3C
3C
3C
FF
ENDCHAR

STARTCHAR ordmasculine
ENCODING 186
SWIDTH 860 0
DWIDTH 12 0
BBX 10 8 1 2
BITMAP
7F80
F3C0
F3C0
F3C0
F3C0
7F80
0000
FFC0
ENDCHAR

STARTCHAR guillemotright
ENCODING 187
SWIDTH 860 0
DWIDTH 12 0
BBX 10 5 1 1
BITMAP
E700
7380
39C0
7380
E700
ENDCHAR

STARTCHAR onequarter
ENCODING 188
SWIDTH 860 0
DWIDTH 12 0
BBX 11 10 1 0
BITMAP
3C00
FC00
3C20
FEC0
0300
0DC0
33C0
CDC0
1FE0
01C0
ENDCHAR

STARTCHAR onehalf
ENCODING 189
SWIDTH 860 0
DWIDTH 12 0
BBX 10 10 1 0
BITMAP
3C00
FC00
3CC0
FF00
0C00
3F80
CCC0
03C0
0F00
0FC0
ENDCHAR

STARTCHAR threequarters
ENCODING 190
SWIDTH 860 0
DWIDTH 12 0
BBX 11 10 1 0
BITMAP
F800
1C00
38C0
1F00
FCC0
09C0
37C0
CDC0
1FE0
01C0
ENDCHAR

STARTCHAR questiondown
ENCODING 191
SWIDTH 860 0
DWIDTH 12 0
BBX 10 10 1 -1
BITMAP
0F00
0F00
0000
0F00
1F00
7E00
F800
F3C0
F3C0
7F80
ENDCHAR

STARTCHAR Agrave
ENCODING 192
SWIDTH 860 0
DWIDTH 12 0
BBX 10 11 1 0
BITMAP
1C00
0E00
0000
1E00
7F80
F3C0
F3C0
F3C0
FFC0
F3C0
F3C0
ENDCHAR

STARTCHAR Aacute
ENCODING 193
SWIDTH 860 0
DWIDTH 12 0
BBX 10 11 1 0
BITMAP
0E00
1C00
0000
1E00
7F80
F3C0
F3C0
F3C0
FFC0
F3C0
F3C0
ENDCHAR

STARTCHAR Acircumflex
ENCODING 194
SWIDTH 860 0
DWIDTH 12 0
BBX 10 11 1 0
BITMAP
1E00
3300
0000
1E00
7F80
F3C0
F3C0
F3C0
FFC0
F3C0
F3C0
ENDCHAR

STARTCHAR Atilde
ENCODING 195
SWIDTH 860 0
DWIDTH 12 0
BBX 10 11 1 0
BITMAP
7EC0
E780
0000
1E00
7F80
F3C0
F3C0
F3C0
FFC0
F3C0
F3C0
ENDCHAR

STARTCHAR Adieresis
ENCODING 196
SWIDTH 860 0
DWIDTH 12 0
BBX 10 11 1 0
BITMAP
F3C0
F3C0
0000
1E00
7F80
F3C0
F3C0
F3C0
FFC0
F3C0
F3C0
ENDCHAR

STARTCHAR Aring
ENCODING 197
SWIDTH 860 0
DWIDTH 12 0
BBX 10 11 1 0
BITMAP
3F00
6180
3F00
1E00
7F80
F3C0
F3C0
F3C0
FFC0
F3C0
F3C0
ENDCHAR

STARTCHAR AE
ENCODING 198
SWIDTH 860 0
DWIDTH 12 0
BBX 11 9 1 0
BITMAP
7FE0
FF00
CF00
CF00
CFC0
FF00
CF00
CF00
CFE0
ENDCHAR

STARTCHAR Ccedilla
ENCODING 199
SWIDTH 860 0
DWIDTH 12 0
BBX 10 10 1 -2
BITMAP
7F80
F3C0
F3C0
F000
F000
F3C0
F3C0
7F80
1E00
3C00
ENDCHAR

STARTCHAR Egrave
ENCODING 200
SWIDTH 860 0
DWIDTH 12 0
BBX 10 11 1 0
BITMAP
1C00
0E00
0000
FFC0
F000
F000
FF00
F000
F000
F000
FFC0
ENDCHAR

STARTCHAR Eacute
ENCODING 201
SWIDTH 860 0
DWIDTH 12 0
BBX 10 11 1 0
BITMAP
0E00
1C00
0000
FFC0
F000
F000
FF00
F000
F000
F000
FFC0
ENDCHAR

STARTCHAR Ecircumflex
ENCODING 202
SWIDTH 860 0
DWIDTH 12 0
BBX 10 11 1 0
BITMAP
1E00
3300
0000
FFC0
F000
F000
FF00
F000
F000
F000
FFC0
ENDCHAR

STARTCHAR Edieresis
ENCODING 203
SWIDTH 860 0
DWIDTH 12 0
BBX 10 11 1 0
BITMAP
F3C0
F3C0
0000
FFC0
F000
F000
FF00
F000
F000
F000
FFC0
ENDCHAR

STARTCHAR Igrave
ENCODING 204
SWIDTH 860 0
DWIDTH 12 0
BBX 10 11 1 0
BITMAP
3C00
1E00
0000
FFC0
1E00
1E00
1E00
1E00
1E00
1E00
FFC0
ENDCHAR

STARTCHAR Iacute
ENCODING 205
SWIDTH 860 0
DWIDTH 12 0
BBX 10 11 1 0
BITMAP
0F00
1E00
0000
FFC0
1E00
1E00
1E00
1E00
1E00
1E00
FFC0
ENDCHAR

STARTCHAR Icircumflex
ENCODING 206
SWIDTH 860 0
DWIDTH 12 0
BBX 10 11 1 0
BITMAP
1E00
3300
0000
FFC0
1E00
1E00
1E00
1E00
1E00
1E00
FFC0
ENDCHAR

STARTCHAR Idieresis
ENCODING 207
SWIDTH 860 0
DWIDTH 12 0
BBX 10 11 1 0
BITMAP
F3C0
F3C0
0000
FFC0
1E00
1E00
1E00
1E00
1E00
1E00
FFC0
ENDCHAR

STARTCHAR Eth
ENCODING 208
SWIDTH 860 0
DWIDTH 12 0
BBX 10 10 1 0
BITMAP
3F80
3CC0
3CC0
3CC0
FEC0
3CC0
3CC0
3CC0
3CC0
3F80
ENDCHAR

STARTCHAR Ntilde
ENCODING 209
SWIDTH 860 0
DWIDTH 12 0
BBX 10 11 1 0
BITMAP
7CC0
E780
0000
E3C0
F3C0
FBC0
FFC0
FFC0
F7C0
F3C0
F1C0
ENDCHAR

STARTCHAR Ograve
ENCODING 210
SWIDTH 860 0
DWIDTH 12 0
BBX 10 11 1 0
BITMAP
1E00
0F00
0000
7F80
F3C0
F3C0
F3C0
F3C0
F3C0
F3C0
7F80
ENDCHAR

STARTCHAR Oacute
ENCODING 211
SWIDTH 860 0
DWIDTH 12 0
BBX 10 11 1 0
BITMAP
0780
0F00
0000
7F80
F3C0
F3C0
F3C0
F3C0
F3C0
F3C0
7F80
ENDCHAR

STARTCHAR Ocircumflex
ENCODING 212
SWIDTH 860 0
DWIDTH 12 0
BBX 10 11 1 0
BITMAP
1E00
3300
0000
7F80
F3C0
F3C0
F3C0
F3C0
F3C0
F3C0
7F80
ENDCHAR

STARTCHAR Otilde
ENCODING 213
SWIDTH 860 0
DWIDTH 12 0
BBX 10 11 1 0
BITMAP
7DC0
E780
0000
7F80
F3C0
F3C0
F3C0
F3C0
F3C0
F3C0
7F80
ENDCHAR

STARTCHAR Odieresis
ENCODING 214
SWIDTH 860 0
DWIDTH 12 0
BBX 10 11 1 0
BITMAP
F3C0
F3C0
0000
7F80
F3C0
F3C0
F3C0
F3C0
F3C0
F3C0
7F80
ENDCHAR

STARTCHAR multiply
ENCODING 215
SWIDTH 860 0
DWIDTH 12 0
BBX 9 5 2 2
BITMAP
F780
7F00
3E00
7F00
F780
ENDCHAR

STARTCHAR Oslash
ENCODING 216
SWIDTH 860 0
DWIDTH 12 0
BBX 11 11 0 -1
BITMAP
0020
3FC0
79E0
79E0
7BE0
7DE0
79E0
79E0
79E0
7FC0
8000
ENDCHAR

STARTCHAR Ugrave
ENCODING 217
SWIDTH 860 0
DWIDTH 12 0
BBX 10 11 1 0
BITMAP
1C00
0E00
0000
F3C0
F3C0
F3C0
F3C0
F3C0
F3C0
F3C0
7F80
ENDCHAR

STARTCHAR Uacute
ENCODING 218
SWIDTH 860 0
DWIDTH 12 0
BBX 10 11 1 0
BITMAP
0E00
1C00
0000
F3C0
F3C0
F3C0
F3C0
F3C0
F3C0
F3C0
7F80
ENDCHAR

STARTCHAR Ucircumflex
ENCODING 219
SWIDTH 860 0
DWIDTH 12 0
BBX 10 11 1 0
BITMAP
1E00
3300
0000
F3C0
F3C0
F3C0
F3C0
F3C0
F3C0
F3C0
7F80
ENDCHAR

STARTCHAR Udieresis
ENCODING 220
SWIDTH 860 0
DWIDTH 12 0
BBX 10 11 1 0
BITMAP
F3C0
F3C0
0000
F3C0
F3C0
F3C0
F3C0
F3C0
F3C0
F3C0
7F80
ENDCHAR

STARTCHAR Yacute
ENCODING 221
SWIDTH 860 0
DWIDTH 12 0
BBX 10 11 1 0
BITMAP
0E00
1C00
0000
F3C0
F3C0
F3C0
7380
3F00
1E00
1E00
1E00
ENDCHAR

STARTCHAR Thorn
ENCODING 222
SWIDTH 860 0
DWIDTH 12 0
BBX 11 10 1 0
BITMAP
FC00
7800
7FC0
79E0
79E0
79E0
7FC0
7800
7800
FC00
ENDCHAR

STARTCHAR germandbls
ENCODING 223
SWIDTH 860 0
DWIDTH 12 0
BBX 10 9 1 0
BITMAP
1F80
73C0
F3C0
F780
F3C0
F3C0
F3C0
F3C0
F780
ENDCHAR

STARTCHAR agrave
ENCODING 224
SWIDTH 860 0
DWIDTH 12 0
BBX 11 10 1 0
BITMAP
1C00
0E00
0000
7F80
03C0
7FC0
F3C0
F3C0
F3C0
7DE0
ENDCHAR

STARTCHAR aacute
ENCODING 225
SWIDTH 860 0
DWIDTH 12 0
BBX 11 10 1 0
BITMAP
0380
0700
0000
7F80
03C0
7FC0
F3C0
F3C0
F3C0
7DE0
ENDCHAR

STARTCHAR acircumflex
ENCODING 226
SWIDTH 860 0
DWIDTH 12 0
BBX 11 10 1 0
BITMAP
1E00
3300
0000
7F80
03C0
7FC0
F3C0
F3C0
F3C0
7DE0
ENDCHAR

STARTCHAR atilde
ENCODING 227
SWIDTH 860 0
DWIDTH 12 0
BBX 11 10 1 0
BITMAP
7CC0
E780
0000
7F80
03C0
7FC0
F3C0
F3C0
F3C0
7DE0
ENDCHAR

STARTCHAR adieresis
ENCODING 228
SWIDTH 860 0
DWIDTH 12 0
BBX 11 10 1 0
BITMAP
F3C0
F3C0
0000
7F80
03C0
7FC0
F3C0
F3C0
F3C0
7DE0
ENDCHAR

STARTCHAR aring
ENCODING 229
SWIDTH 860 0
DWIDTH 12 0
BBX 11 11 1 0
BITMAP
1F00
3980
1F00
0000
7F80
03C0
7FC0
F3C0
F3C0
F3C0
7DE0
ENDCHAR

STARTCHAR ae
ENCODING 230
SWIDTH 860 0
DWIDTH 12 0
BBX 12 7 0 0
BITMAP
7BE0
CE70
0E70
7FF0
EE00
EE30
7FE0
ENDCHAR

STARTCHAR ccedilla
ENCODING 231
SWIDTH 860 0
DWIDTH 12 0
BBX 10 9 1 -2
BITMAP
7F80
F3C0
F3C0
F000
F3C0
F3C0
7F80
1E00
3800
ENDCHAR

STARTCHAR egrave
ENCODING 232
SWIDTH 860 0
DWIDTH 12 0
BBX 10 10 1 0
BITMAP
1C00
0E00
0000
7F80
F3C0
F3C0
FFC0
F000
F3C0
7F80
ENDCHAR

STARTCHAR eacute
ENCODING 233
SWIDTH 860 0
DWIDTH 12 0
BBX 10 10 1 0
BITMAP
0E00
1C00
0000
7F80
F3C0
F3C0
FFC0
F000
F3C0
7F80
ENDCHAR

STARTCHAR ecircumflex
ENCODING 234
SWIDTH 860 0
DWIDTH 12 0
BBX 10 10 1 0
BITMAP
1E00
3300
0000
7F80
F3C0
F3C0
FFC0
F000
F3C0
7F80
ENDCHAR

STARTCHAR edieresis
ENCODING 235
SWIDTH 860 0
DWIDTH 12 0
BBX 10 10 1 0
BITMAP
F3C0
F3C0
0000
7F80
F3C0
F3C0
FFC0
F000
F3C0
7F80
ENDCHAR

STARTCHAR igrave
ENCODING 236
SWIDTH 860 0
DWIDTH 12 0
BBX 10 10 1 0
BITMAP
3800
1C00
0000
7E00
1E00
1E00
1E00
1E00
1E00
FFC0
ENDCHAR

STARTCHAR iacute
ENCODING 237
SWIDTH 860 0
DWIDTH 12 0
BBX 10 10 1 0
BITMAP
0700
0E00
0000
7E00
1E00
1E00
1E00
1E00
1E00
FFC0
ENDCHAR

STARTCHAR icircumflex
ENCODING 238
SWIDTH 860 0
DWIDTH 12 0
BBX 10 10 1 0
BITMAP
3C00
6600
0000
7E00
1E00
1E00
1E00
1E00
1E00
FFC0
ENDCHAR

STARTCHAR idieresis
ENCODING 239
SWIDTH 860 0
DWIDTH 12 0
BBX 10 10 1 0
BITMAP
F780
F780
0000
7E00
1E00
1E00
1E00
1E00
1E00
FFC0
ENDCHAR

STARTCHAR eth
ENCODING 240
SWIDTH 860 0
DWIDTH 12 0
BBX 10 9 1 0
BITMAP
EC00
3800
CE00
0F80
7FC0
F3C0
F3C0
F3C0
7F80
ENDCHAR

STARTCHAR ntilde
ENCODING 241
SWIDTH 860 0
DWIDTH 12 0
BBX 10 10 1 0
BITMAP
79C0
E780
0000
F780
FFC0
FBC0
F3C0
F3C0
F3C0
F3C0
ENDCHAR

STARTCHAR ograve
ENCODING 242
SWIDTH 860 0
DWIDTH 12 0
BBX 10 10 1 0
BITMAP
1C00
0E00
0000
7F80
F3C0
F3C0
F3C0
F3C0
F3C0
7F80
ENDCHAR

STARTCHAR oacute
ENCODING 243
SWIDTH 860 0
DWIDTH 12 0
BBX 10 10 1 0
BITMAP
0E00
1C00
0000
7F80
F3C0
F3C0
F3C0
F3C0
F3C0
7F80
ENDCHAR

STARTCHAR ocircumflex
ENCODING 244
SWIDTH 860 0
DWIDTH 12 0
BBX 10 10 1 0
BITMAP
1E00
3300
0000
7F80
F3C0
F3C0
F3C0
F3C0
F3C0
7F80
ENDCHAR

STARTCHAR otilde
ENCODING 245
SWIDTH 860 0
DWIDTH 12 0
BBX 10 10 1 0
BITMAP
7CC0
E780
0000
7F80
F3C0
F3C0
F3C0
F3C0
F3C0
7F80
ENDCHAR

STARTCHAR odieresis
ENCODING 246
SWIDTH 860 0
DWIDTH 12 0
BBX 10 10 1 0
BITMAP
F3C0
F3C0
0000
7F80
F3C0
F3C0
F3C0
F3C0
F3C0
7F80
ENDCHAR

STARTCHAR divide
ENCODING 247
SWIDTH 860 0
DWIDTH 12 0
BBX 10 8 1 0
BITMAP
0C00
0C00
0000
FFC0
FFC0
0000
0C00
0C00
ENDCHAR

STARTCHAR oslash
ENCODING 248
SWIDTH 860 0
DWIDTH 12 0
BBX 11 11 1 -2
BITMAP
0020
0040
7F80
F3C0
F3C0
F7C0
FBC0
F3C0
FF80
4000
8000
ENDCHAR

STARTCHAR ugrave
ENCODING 249
SWIDTH 860 0
DWIDTH 12 0
BBX 10 10 1 0
BITMAP
1C00
0E00
0000
F3C0
F3C0
F3C0
F3C0
F3C0
F3C0
7F80
ENDCHAR

STARTCHAR uacute
ENCODING 250
SWIDTH 860 0
DWIDTH 12 0
BBX 10 10 1 0
BITMAP
0E00
1C00
0000
F3C0
F3C0
F3C0
F3C0
F3C0
F3C0
7F80
ENDCHAR

STARTCHAR ucircumflex
ENCODING 251
SWIDTH 860 0
DWIDTH 12 0
BBX 10 10 1 0
BITMAP
1E00
3300
0000
F3C0
F3C0
F3C0
F3C0
F3C0
F3C0
7F80
ENDCHAR

STARTCHAR udieresis
ENCODING 252
SWIDTH 860 0
DWIDTH 12 0
BBX 10 10 1 0
BITMAP
F3C0
F3C0
0000
F3C0
F3C0
F3C0
F3C0
F3C0
F3C0
7F80
ENDCHAR

STARTCHAR yacute
ENCODING 253
SWIDTH 860 0
DWIDTH 12 0
BBX 10 11 1 -1
BITMAP
0E00
1C00
0000
F3C0
F3C0
F3C0
F3C0
7FC0
03C0
F3C0
7F80
ENDCHAR

STARTCHAR thorn
ENCODING 254
SWIDTH 860 0
DWIDTH 12 0
BBX 10 10 2 -1
BITMAP
F000
F000
FF80
F3C0
F3C0
F3C0
F3C0
FF80
F000
F000
ENDCHAR

STARTCHAR ydieresis
ENCODING 255
SWIDTH 860 0
DWIDTH 12 0
BBX 10 11 1 -1
BITMAP
F3C0
F3C0
0000
F3C0
F3C0
F3C0
F3C0
7FC0
03C0
F3C0
7F80
ENDCHAR
ENDFONT
